<svg width="32" height="32" viewBox="0 0 32 32" fill="none" xmlns="http://www.w3.org/2000/svg">
<path d="M16 21.3334V28" stroke="white" stroke-width="2" stroke-linecap="round" stroke-linejoin="round"/>
<path d="M21.3333 18.6666V28" stroke="white" stroke-width="2" stroke-linecap="round" stroke-linejoin="round"/>
<path d="M26.6667 13.3334V28" stroke="white" stroke-width="2" stroke-linecap="round" stroke-linejoin="round"/>
<path d="M29.3334 4L17.8054 15.528C17.7434 15.5901 17.6699 15.6393 17.5889 15.6729C17.5079 15.7066 17.421 15.7239 17.3334 15.7239C17.2457 15.7239 17.1588 15.7066 17.0778 15.6729C16.9968 15.6393 16.9233 15.5901 16.8614 15.528L12.472 11.1387C12.347 11.0137 12.1775 10.9435 12.0007 10.9435C11.8239 10.9435 11.6544 11.0137 11.5294 11.1387L2.66669 20" stroke="white" stroke-width="2" stroke-linecap="round" stroke-linejoin="round"/>
<path d="M5.33331 24V28" stroke="white" stroke-width="2" stroke-linecap="round" stroke-linejoin="round"/>
<path d="M10.6667 18.6666V28" stroke="white" stroke-width="2" stroke-linecap="round" stroke-linejoin="round"/>
</svg>
