<svg width="32" height="32" viewBox="0 0 32 32" fill="none" xmlns="http://www.w3.org/2000/svg">
<path d="M2.66669 28C2.66657 25.9471 3.25887 23.9378 4.37248 22.2132C5.4861 20.4886 7.07372 19.122 8.94482 18.2774C10.8159 17.4328 12.891 17.146 14.921 17.4516C16.9511 17.7572 18.8498 18.642 20.3894 20" stroke="white" stroke-width="2" stroke-linecap="round" stroke-linejoin="round"/>
<path d="M13.3334 17.3333C17.0153 17.3333 20 14.3486 20 10.6667C20 6.98477 17.0153 4 13.3334 4C9.65146 4 6.66669 6.98477 6.66669 10.6667C6.66669 14.3486 9.65146 17.3333 13.3334 17.3333Z" stroke="white" stroke-width="2" stroke-linecap="round" stroke-linejoin="round"/>
<path d="M21.3333 25.3333L24 28L29.3333 22.6666" stroke="white" stroke-width="2" stroke-linecap="round" stroke-linejoin="round"/>
</svg>
