<svg width="32" height="32" viewBox="0 0 32 32" fill="none" xmlns="http://www.w3.org/2000/svg">
<path d="M18.6667 17.3333V11.3333C18.6667 9.33329 20 9.33329 20 6.66663C20 5.60576 19.5786 4.58834 18.8284 3.8382C18.0783 3.08805 17.0609 2.66663 16 2.66663C14.9391 2.66663 13.9217 3.08805 13.1716 3.8382C12.4214 4.58834 12 5.60576 12 6.66663C12 9.33329 13.3333 9.33329 13.3333 11.3333V17.3333" stroke="white" stroke-width="2" stroke-linecap="round" stroke-linejoin="round"/>
<path d="M26.6667 20.6667C26.6667 19.7827 26.3155 18.9348 25.6904 18.3097C25.0652 17.6846 24.2174 17.3334 23.3333 17.3334H8.66667C7.78261 17.3334 6.93477 17.6846 6.30965 18.3097C5.68453 18.9348 5.33334 19.7827 5.33334 20.6667V22.6667C5.33334 23.0203 5.47381 23.3595 5.72386 23.6095C5.97391 23.8596 6.31305 24 6.66667 24H25.3333C25.687 24 26.0261 23.8596 26.2761 23.6095C26.5262 23.3595 26.6667 23.0203 26.6667 22.6667V20.6667Z" stroke="white" stroke-width="2" stroke-linecap="round" stroke-linejoin="round"/>
<path d="M6.66666 29.3334H25.3333" stroke="white" stroke-width="2" stroke-linecap="round" stroke-linejoin="round"/>
</svg>
