<svg width="32" height="32" viewBox="0 0 32 32" fill="none" xmlns="http://www.w3.org/2000/svg">
<path d="M22.6667 16V21.3333C22.6667 21.687 22.5262 22.0261 22.2761 22.2761C22.0261 22.5262 21.687 22.6667 21.3333 22.6667H16" stroke="white" stroke-width="2" stroke-linecap="round" stroke-linejoin="round"/>
<path d="M22.6667 4H25.3334C26.0406 4 26.7189 4.28095 27.219 4.78105C27.7191 5.28115 28 5.95942 28 6.66667V9.33333" stroke="white" stroke-width="2" stroke-linecap="round" stroke-linejoin="round"/>
<path d="M22.6667 10.6667V9.33337" stroke="white" stroke-width="2" stroke-linecap="round" stroke-linejoin="round"/>
<path d="M28 22.6666V25.3333C28 26.0405 27.7191 26.7188 27.219 27.2189C26.7189 27.719 26.0406 28 25.3334 28H22.6667" stroke="white" stroke-width="2" stroke-linecap="round" stroke-linejoin="round"/>
<path d="M4 9.33333V6.66667C4 5.95942 4.28095 5.28115 4.78105 4.78105C5.28115 4.28095 5.95942 4 6.66667 4H9.33333" stroke="white" stroke-width="2" stroke-linecap="round" stroke-linejoin="round"/>
<path d="M9.33331 22.6666H9.34665" stroke="white" stroke-width="2" stroke-linecap="round" stroke-linejoin="round"/>
<path d="M9.33333 28H6.66667C5.95942 28 5.28115 27.719 4.78105 27.2189C4.28095 26.7188 4 26.0405 4 25.3333V22.6666" stroke="white" stroke-width="2" stroke-linecap="round" stroke-linejoin="round"/>
<path d="M14.6666 9.33337H10.6666C9.93027 9.33337 9.33331 9.93033 9.33331 10.6667V14.6667C9.33331 15.4031 9.93027 16 10.6666 16H14.6666C15.403 16 16 15.4031 16 14.6667V10.6667C16 9.93033 15.403 9.33337 14.6666 9.33337Z" stroke="white" stroke-width="2" stroke-linecap="round" stroke-linejoin="round"/>
</svg>
