<svg width="32" height="32" viewBox="0 0 32 32" fill="none" xmlns="http://www.w3.org/2000/svg">
<path d="M13.3333 14.6667C16.2789 14.6667 18.6667 12.2789 18.6667 9.33333C18.6667 6.38781 16.2789 4 13.3333 4C10.3878 4 8 6.38781 8 9.33333C8 12.2789 10.3878 14.6667 13.3333 14.6667Z" stroke="white" stroke-width="2" stroke-linecap="round" stroke-linejoin="round"/>
<path d="M13.7333 20H9.33333C7.91885 20 6.56229 20.5619 5.5621 21.5621C4.5619 22.5623 4 23.9188 4 25.3333V28" stroke="white" stroke-width="2" stroke-linecap="round" stroke-linejoin="round"/>
<path d="M20 20.6667V18.6667C20 17.9594 20.281 17.2811 20.781 16.781C21.2811 16.281 21.9594 16 22.6667 16C23.3739 16 24.0522 16.281 24.5523 16.781C25.0524 17.2811 25.3333 17.9594 25.3333 18.6667V20.6667" stroke="white" stroke-width="2" stroke-linecap="round" stroke-linejoin="round"/>
<path d="M26.8013 21.3334H18.532C17.87 21.3334 17.3333 21.87 17.3333 22.532V26.8014C17.3333 27.4634 17.87 28 18.532 28H26.8013C27.4633 28 28 27.4634 28 26.8014V22.532C28 21.87 27.4633 21.3334 26.8013 21.3334Z" stroke="white" stroke-width="2" stroke-linecap="round" stroke-linejoin="round"/>
</svg>
